<?xml version="1.0" encoding="UTF-8" ?>
<!DOCTYPE svg PUBLIC "-//W3C//DTD SVG 1.1//EN" "http://www.w3.org/Graphics/SVG/1.1/DTD/svg11.dtd">
<svg width="1384pt" height="676pt" viewBox="0 0 1384 676" version="1.1" xmlns="http://www.w3.org/2000/svg">
<g id="#37e4a4ff">
<path fill="#37e4a4" opacity="1.00" d=" M 6.29 6.31 C 177.86 6.16 349.43 6.27 521.00 6.24 C 524.20 6.19 527.40 6.18 530.59 6.57 C 530.34 58.39 530.50 110.21 530.44 162.03 C 530.64 163.49 529.87 165.75 528.06 165.52 C 472.37 165.59 416.69 165.57 361.00 165.52 C 357.96 165.65 354.81 165.09 351.86 165.89 C 350.94 167.02 350.72 168.49 350.77 169.91 C 350.79 254.94 350.79 339.97 350.78 424.99 C 351.25 432.28 352.00 439.56 352.94 446.81 C 355.60 461.58 361.31 476.25 371.67 487.36 C 385.80 502.37 406.78 509.48 427.05 509.76 C 432.99 510.70 439.01 510.33 445.00 510.41 C 472.02 510.37 499.04 510.45 526.06 510.36 C 527.62 510.24 529.12 510.70 530.51 511.38 C 530.35 564.09 530.49 616.81 530.45 669.52 C 507.98 670.04 485.48 669.58 463.00 669.72 C 446.32 669.66 429.63 669.89 412.96 669.39 C 405.68 668.30 398.31 668.18 390.98 667.56 C 373.22 665.72 355.55 662.65 338.30 658.00 C 324.23 654.59 310.46 649.91 297.29 643.89 C 264.58 629.87 234.99 608.20 213.01 580.10 C 192.89 554.33 179.78 523.54 172.85 491.71 C 169.99 478.03 167.60 464.16 167.32 450.16 C 166.26 445.22 166.47 440.16 166.42 435.14 C 166.18 349.76 166.39 264.38 166.34 179.00 C 166.19 174.49 166.83 169.90 165.87 165.45 C 112.80 165.84 59.73 165.44 6.66 165.68 C 6.43 164.14 6.26 162.58 6.23 161.02 C 6.32 109.45 6.19 57.88 6.29 6.31 Z" />
<path fill="#37e4a4" opacity="1.00" d=" M 534.24 6.47 C 559.49 5.96 584.75 6.40 610.00 6.26 C 642.67 6.27 675.34 6.26 708.00 6.26 C 712.41 6.29 716.83 6.08 721.23 6.60 C 725.51 30.79 729.04 55.12 733.53 79.29 C 735.07 87.88 736.01 96.58 737.89 105.11 C 742.61 134.53 747.99 163.83 752.61 193.26 C 758.26 222.75 762.39 252.49 767.73 282.02 C 774.45 322.46 781.52 362.83 788.28 403.27 C 790.31 413.81 791.65 424.48 793.98 434.96 C 796.96 422.86 798.57 410.47 801.06 398.26 C 824.64 267.68 848.08 137.06 871.58 6.46 C 895.38 5.97 919.20 6.40 943.00 6.26 C 971.67 6.26 1000.33 6.27 1029.00 6.26 C 1035.22 6.37 1041.46 5.97 1047.68 6.48 C 1047.89 6.85 1048.30 7.58 1048.51 7.94 C 1052.96 34.30 1057.78 60.60 1062.38 86.93 C 1065.01 99.03 1066.43 111.35 1069.02 123.45 C 1071.10 134.64 1072.52 145.94 1074.99 157.05 C 1087.77 230.04 1101.00 302.95 1113.87 375.93 C 1116.96 391.04 1119.00 406.34 1122.11 421.44 C 1122.89 424.76 1122.84 428.46 1124.95 431.31 C 1128.05 421.86 1129.02 411.92 1130.75 402.18 C 1150.62 287.83 1169.86 173.38 1189.61 59.01 C 1191.18 46.37 1194.36 34.00 1196.02 21.37 C 1196.58 16.36 1197.68 11.45 1198.67 6.51 C 1224.10 5.91 1249.56 6.43 1275.00 6.27 C 1306.33 6.22 1337.66 6.27 1368.99 6.22 C 1372.54 6.19 1376.10 6.23 1379.66 6.45 C 1379.21 12.04 1377.28 17.34 1376.20 22.81 C 1361.60 87.16 1346.57 151.41 1332.24 215.83 C 1329.16 227.12 1327.32 238.70 1324.35 250.02 C 1294.28 383.14 1263.78 516.17 1233.67 649.29 C 1232.13 655.96 1231.02 662.71 1229.45 669.37 C 1219.32 670.12 1209.14 669.56 1199.00 669.74 C 1150.33 669.74 1101.67 669.75 1053.00 669.74 C 1042.96 669.53 1032.89 670.17 1022.87 669.38 C 1014.30 623.88 1004.62 578.57 995.45 533.17 C 984.04 477.23 972.52 421.30 961.12 365.35 C 959.32 357.98 958.34 350.43 956.36 343.11 C 954.71 346.57 954.08 350.36 953.45 354.11 C 935.63 443.47 917.82 532.84 900.15 622.24 C 898.22 632.84 895.66 643.32 894.09 654.00 C 892.97 659.21 892.50 664.62 890.66 669.64 C 838.11 669.86 785.55 669.68 733.00 669.74 C 716.91 669.57 700.81 670.08 684.74 669.49 C 667.67 591.96 649.72 514.63 632.16 437.20 C 612.95 352.45 593.73 267.71 574.45 182.97 C 561.04 124.14 547.87 65.24 534.24 6.47 Z" />
</g>
</svg>
